<svg class="svg-icon" style="width: 1em; height: 1em;vertical-align: middle;fill: currentColor;overflow: hidden;" viewBox="0 0 1024 1024" version="1.1" xmlns="http://www.w3.org/2000/svg"><path d="M511.99112 0C300.252017 0 128 172.604009 128 384.695104c0 317.656654 358.423711 622.673601 373.687358 635.505304a15.903632 15.903632 0 0 0 20.479527 0.127997C537.430532 1007.720696 895.98224 707.951629 895.98224 384.695104 895.98224 172.604009 723.730224 0 511.99112 0z m0.063999 986.79318C453.144481 934.154398 159.99926 658.512772 159.99926 384.695104 159.99926 190.203602 317.915608 31.99926 511.99112 31.99926s351.99186 158.204342 351.99186 352.695844c0 278.457561-292.857228 550.163277-351.927861 602.098076z" fill="#fff" /><path d="M511.99112 191.99556c-105.885551 0-191.99556 86.110009-191.99556 191.99556s86.110009 191.99556 191.99556 191.99556 191.99556-86.110009 191.99556-191.99556-86.110009-191.99556-191.99556-191.99556z m0 351.99186c-88.22196 0-159.9963-71.77434-159.9963-159.9963s71.77434-159.9963 159.9963-159.9963 159.9963 71.77434 159.9963 159.9963-71.77434 159.9963-159.9963 159.9963z" fill="#fff" /></svg>